HIERARCHY
ROOT Hips
{
  OFFSET 0.382225 96.6805 0.598322
  CHANNELS 6 Xposition Yposition Zposition Zrotation Xrotation Yrotation
  JOINT Spine
  {
    OFFSET 10.8089 -0.851416 0
    CHANNELS 3 Zrotation Xrotation Yrotation
    JOINT Spine1
    {
      OFFSET 18.8753 3.80116 0
      CHANNELS 3 Zrotation Xrotation Yrotation
      JOINT Spine2
      {
        OFFSET 13.4073 0.420477 0
        CHANNELS 3 Zrotation Xrotation Yrotation
        JOINT LeftShoulder
        {
          OFFSET 11.8837 -2.73209 -3.78198
          CHANNELS 3 Zrotation Xrotation Yrotation
          JOINT LeftArm
          {
            OFFSET 15.7849 0 -2.35849e-005
            CHANNELS 3 Zrotation Xrotation Yrotation
            JOINT LeftForeArm
            {
              OFFSET 30.3399 0 0
              CHANNELS 3 Zrotation Xrotation Yrotation
              JOINT LeftHand
              {
                OFFSET 26.9751 0 2.45913e-005
                CHANNELS 3 Zrotation Xrotation Yrotation
                End Site
                {
                  OFFSET 8 0 0
                }
              }
            }
          }
        }
        JOINT RightShoulder
        {
          OFFSET 11.8838 -2.7321 3.782
          CHANNELS 3 Zrotation Xrotation Yrotation
          JOINT RightArm
          {
            OFFSET -15.7848 0 -1.07056e-005
            CHANNELS 3 Zrotation Xrotation Yrotation
            JOINT RightForeArm
            {
              OFFSET -30.34 1.02096e-005 -2.53607e-005
              CHANNELS 3 Zrotation Xrotation Yrotation
              JOINT RightHand
              {
                OFFSET -26.9752 2.07668e-005 0
                CHANNELS 3 Zrotation Xrotation Yrotation
                End Site
                {
                  OFFSET -8 0 0
                }
              }
            }
          }
        }
        JOINT Neck
        {
          OFFSET 16.5588 -0.355318 0
          CHANNELS 3 Zrotation Xrotation Yrotation
          JOINT Head
          {
            OFFSET 9.28361 0.364157 0
            CHANNELS 3 Zrotation Xrotation Yrotation
            End Site
            {
              OFFSET 0 0 0
            }
          }
        }
      }
    }
  }
  JOINT LeftUpLeg
  {
    OFFSET -1.44883 -0.531424 -9.00581
    CHANNELS 3 Zrotation Xrotation Yrotation
    JOINT LeftLeg
    {
      OFFSET -42.572 0.0788889 -0.011964
      CHANNELS 3 Zrotation Xrotation Yrotation
      JOINT LeftFoot
      {
        OFFSET -40.1967 0 0
        CHANNELS 3 Zrotation Xrotation Yrotation
				JOINT LeftToe
        {
          OFFSET -10.4538 -16.5779 0.0801563
          CHANNELS 3 Zrotation Xrotation Yrotation
          End Site
          {
            OFFSET -1.0 -1.0 0.0
          }
        }
      }
    }
  }
  JOINT RightUpLeg
  {
    OFFSET -1.44865 -0.531427 9.0058
    CHANNELS 3 Zrotation Xrotation Yrotation
    JOINT RightLeg
    {
      OFFSET 42.5723 -3.24776e-005 0
      CHANNELS 3 Zrotation Xrotation Yrotation
      JOINT RightFoot
      {
        OFFSET 40.1968 0 -1.14003e-005
        CHANNELS 3 Zrotation Xrotation Yrotation
				JOINT RightToe
        {
          OFFSET 10.4538 16.5778 -0.0801573
          CHANNELS 3 Zrotation Xrotation Yrotation
          End Site
          {
            OFFSET -1.0 -1.0 0.0
          }
        }
      }
    }
  }
}
MOTION
Frames:	19
Frame Time:	0.0333333
-104.051 76.6398 -54.1457 73.7966 -14.3704 3.38414 -23.4522 9.9729 13.5818 21.6938 -0.420282 -0.708712 2.7794 1.93418e-006 1.65929e-005 -3.11291 13.1471 86.97 16.3099 5.25647 10.4564 -18.7066 -13.3152 -1.23133 -155.006 -58.3416 -143.378 -179.318 1.72395 94.2137 -37.2192 -29.0189 6.69231 -88.6135 -8.61363 -6.99483 -83.4721 -76.927 -63.4713 -23.508 4.63459e-006 -5.90926e-006 23.8333 -28.0366 3.16138 87.14 18.131 -40.4849 -63.1452 -2.66284 -3.36721 3.04822 0.656056 0.599609 -90 0 0 -167.88 18.3387 -32.4307 -33.2783 -4.77264 -1.70685 -8.83346 18.6915 19.3088 -90 0 0
-96.6897 78.6844 -55.0001 77.203 -3.99168 9.94172 -24.068 14.3026 12.1629 20.2193 -0.331735 -0.576181 2.7794 1.93418e-006 1.65929e-005 -4.38277 17.1282 92.4522 19.2463 3.76964 18.4078 -20.3023 -13.035 -1.96069 -155.952 -57.5673 -144.892 179.251 4.91441 97.9899 -28.0038 -12.0977 12.2493 -77.9641 -8.96726 -6.08991 -81.2639 -81.4551 -63.7523 -23.508 4.63459e-006 -5.90926e-006 20.1725 -41.0743 5.1214 80.9336 16.9356 -36.227 -66.1386 -2.21088 -3.54149 9.0468 -4.63783 -1.89042 -90 0 0 -176.207 16.3276 -24.7982 -43.4757 -3.79662 -3.1974 -31.0038 -15.0102 16.9021 -90 0 0
-90.0716 80.2141 -57.1776 81.0225 8.638 13.6406 -25.7485 14.7354 10.8316 18.685 -0.243271 -0.435924 2.7794 1.93418e-006 1.65929e-005 -4.48007 18.777 91.5981 26.4135 5.98182 33.4288 -25.2409 -12.0367 -4.17418 -152.697 -60.2582 -142.512 177.166 7.90412 103.374 -21.1217 -5.38282 20.3334 -57.1826 -9.15949 -4.20884 -76.1555 -78.9674 -60.151 -23.508 4.63459e-006 -5.90926e-006 5.39876 -50.0476 -3.5474 73.6524 19.0881 -30.1897 -69.2158 -1.39304 -3.69541 15.2581 -6.9741 -12.5128 -90 0 0 -174.642 17.1911 -25.2827 -69.4735 -0.602393 -5.52208 -41.1951 -13.6166 19.9719 -90 0 0
-84.6808 81.0728 -60.8294 83.7567 21.8119 16.6223 -25.8075 13.9815 6.3252 18.2646 -0.219685 -0.397089 2.7794 1.93418e-006 1.65929e-005 -4.19458 21.0013 89.0622 29.051 16.9523 47.8273 -30.2162 -10.8312 -6.32542 -153.753 -62.1993 -143.829 175.136 9.81753 108.477 -10.649 -2.05931 26.0282 -39.3142 -8.78596 -2.62479 -105.08 -75.5581 -91.8181 -23.508 4.63459e-006 -5.90926e-006 -15.4768 -54.8978 -14.2867 68.4079 21.522 -26.1023 -73.2173 -0.761702 -3.85635 17.4742 -6.35906 -16.9891 -90 0 0 -170.571 11.9299 -28.4689 -92.8073 2.7818 -6.07229 -46.2216 -5.48535 17.6073 -90 0 0
-80.6439 81.1858 -65.2665 88.0073 34.0203 18.4468 -26.8026 12.0899 -0.36627 17.322 -0.167869 -0.309407 2.7794 1.93418e-006 1.65929e-005 -3.02745 25.5364 83.8941 20.0319 32.3372 65.7491 -33.3592 -9.96746 -7.63652 -158.053 -59.6287 -147.436 173.266 11.9316 110.689 1.78702 -0.341074 31.5156 -30.9786 -8.44926 -1.94249 -113.3 -75.8303 -102.168 -23.508 4.63459e-006 -5.90926e-006 -30.5993 -55.4656 -23.1928 61.0481 25.3532 -24.4997 -75.5519 -0.20257 -3.93084 23.4624 -5.05682 -21.5168 -90 0 0 -170.602 -3.73191 -29.9399 -102.556 3.95091 -5.80623 -52.7807 -18.1025 15.8967 -90 0 0
-77.3739 81.029 -69.0847 94.7736 46.23 16.4904 -30.257 7.74116 -6.34805 16.0423 -0.0998431 -0.189033 2.7794 1.93418e-006 1.65929e-005 -0.610354 26.0139 76.9074 3.11974 42.1879 88.0899 -32.9486 -10.0847 -7.46755 -161.592 -56.8592 -149.12 172.18 13.6057 110.588 11.9108 2.67992 36.3019 -25.6101 -8.18156 -1.53208 -123.133 -75.383 -113.728 -23.508 4.63459e-006 -5.90926e-006 -38.9165 -52.9786 -30.188 51.7629 27.7081 -23.7833 -77.1256 0.128652 -3.96976 28.6642 -4.97445 -22.3707 -90 0 0 -171.234 -17.9926 -33.2627 -96.3217 3.04644 -5.9632 -50.8312 -16.8876 12.7428 -90 0 0
-74.2788 81.2098 -71.4667 103.382 59.0038 10.8695 -34.6155 1.8742 -11.6906 14.9208 -0.0424387 -0.0823081 2.7794 1.93418e-006 1.65929e-005 0.00170292 24.1625 74.6273 -7.39815 39.9432 95.349 -32.3323 -10.2583 -7.21256 -159.439 -60.5921 -147.345 171.716 14.2074 110.781 20.8376 8.262 37.0739 -25.6177 -8.18692 -1.48889 -131.652 -78.0123 -123.708 -23.508 4.63459e-006 -5.90926e-006 -42.9552 -50.9355 -35.7281 43.9753 26.2404 -23.1993 -78.9508 0.377182 -4.00951 30.3953 -6.10577 -20.9272 -90 0 0 -171.208 -21.4559 -37.5984 -73.1815 -0.168181 -5.68261 -38.7908 -4.97952 12.1605 -90 0 0
-70.7202 81.6767 -72.1301 110.539 68.1164 4.78509 -36.0479 -4.62148 -14.2742 14.1129 -0.00240487 -0.00475923 2.7794 1.93418e-006 1.65929e-005 0.527083 23.6132 72.8346 -9.44684 34.8644 88.6207 -35.5509 -9.31883 -8.52631 -160.498 -57.5501 -147.586 170.828 15.4095 111.008 26.5692 9.70839 35.6548 -29.2277 -8.37953 -1.74573 -96.8436 -85.7395 -89.2487 -23.508 4.63459e-006 -5.90926e-006 -45.9462 -47.8048 -38.2228 39.5811 22.6972 -22.3335 -79.5444 0.542957 -4.02251 32.7737 -6.18857 -21.2056 -90 0 0 -173.044 -22.8557 -40.7508 -36.7865 -4.42238 -2.39079 -21.2266 7.57593 14.6667 -90 0 0
-66.4521 83.017 -72.4386 111.324 69.2041 4.23285 -34.6592 -8.30274 -12.2172 14.0764 -0.000637201 -0.00124513 2.7794 1.93418e-006 1.65929e-005 1.04204 22.1455 70.4798 1.17015 27.739 76.9621 -40.4995 -7.71669 -10.4533 -164.104 -57.1442 -150.999 169.815 16.3249 112.05 25.3463 4.70025 31.4975 -34.3013 -8.59539 -2.20831 -3.91144 -82.607 4.40291 -23.508 4.63459e-006 -5.90926e-006 -47.8488 -44.5194 -37.975 36.7607 20.291 -23.0058 -77.2952 0.316047 -3.96466 36.0865 -3.9639 -21.9037 -90 0 0 -161.023 -21.8273 -35.8915 -23.4694 -5.25478 -0.603675 -13.9409 19.8777 8.20584 -90 0 0
-59.2117 85.1105 -70.7213 113.164 76.1301 2.27288 -35.024 -17.5268 -8.98938 14.5484 -0.0238564 -0.0466338 2.7794 1.93418e-006 1.65929e-005 1.09139 16.9116 65.8748 7.67582 21.1323 64.5016 -46.4012 -5.56423 -12.5842 -169.705 -56.4469 -155.259 168.403 16.5628 115.245 19.2981 1.31904 25.992 -45.5789 -8.97246 -3.1659 10.4079 -75.6268 20.3837 -23.508 4.63459e-006 -5.90926e-006 -51.235 -41.3204 -42.8452 34.4743 11.1676 -21.5861 -74.5453 -0.0607762 -3.87851 36.3907 -0.440627 -22.8342 -90 0 0 -131.546 12.5747 -24.1456 -16.8062 -5.50806 0.346525 -12.3125 12.2103 2.19741 -90 0 0
-50.5085 86.6816 -70.0385 -119.828 85.7275 -126.433 -36.4106 -26.3411 -6.53254 13.805 0.0125549 0.0249529 2.7794 1.93418e-006 1.65929e-005 -0.744872 11.4554 67.2593 -4.94755 8.00345 43.3223 -45.0273 -6.08872 -12.1052 -172.693 -51.6155 -156.14 170.406 18.0044 107.673 18.8656 4.45346 30.0107 -57.7996 -9.1635 -4.26519 6.62205 -73.1716 17.6755 -23.508 4.63459e-006 -5.90926e-006 -51.5507 -42.513 -49.8407 31.5181 1.30459 -18.1873 -69.2114 -0.707711 -3.66719 37.0138 1.55603 -23.5898 -90 0 0 -128.467 13.0581 -16.4446 -12.5191 -5.56921 1.00057 0.99315 14.565 -1.48013 -90 0 0
-41.9631 88.7371 -73.0481 -86.0241 66.2953 -160.727 -37.6591 -28.7121 -5.66995 15.4908 -0.0713555 -0.13668 2.7794 1.93418e-006 1.65929e-005 -2.99236 3.68391 74.7309 -31.4121 -0.48001 18.3129 -36.2543 -9.10281 -8.80709 -167.18 -57.2124 -150.74 171.718 18.0774 104.224 18.1492 9.32993 21.4512 -60.5864 -9.17441 -4.51985 1.47177 -75.7593 14.2513 -23.508 4.63459e-006 -5.90926e-006 -40.0755 -38.2589 -46.3505 31.4905 -6.95318 -19.3083 -64.4799 -1.53447 -3.42886 33.0512 -1.84319 -13.7331 -90 0 0 -135.855 3.62428 -12.4242 -16.0592 -5.50183 0.46192 0.855195 -0.676615 12.4381 -90 0 0
-34.1895 90.559 -77.7306 -80.377 45.6943 -167.919 -36.5429 -30.8564 -4.02599 17.4161 -0.172969 -0.318192 2.7794 1.93418e-006 1.65929e-005 -4.24943 -2.64736 73.7778 -54.4516 -8.3698 16.9818 -38.7629 -8.30165 -9.78908 -166.627 -60.8913 -150.117 172.876 16.4299 103.42 15.7169 11.3127 12.5202 -53.4498 -9.12215 -3.86946 -3.89532 -77.7004 9.00075 -23.508 4.63459e-006 -5.90926e-006 -19.7619 -27.1047 -35.8132 34.2455 -14.307 -18.21 -56.1119 -2.72765 -2.8846 26.2398 -8.95262 -4.22496 -90 0 0 -143.33 -12.869 -9.08113 -12.4048 -5.54534 1.0189 5.57919 -8.32305 15.8282 -90 0 0
-27.9599 91.2183 -83.5726 -78.7642 25.8671 -173.488 -34.4793 -29.5467 -0.904909 17.4292 -0.173692 -0.319426 2.7794 1.93418e-006 1.65929e-005 -3.68862 0.622471 72.4131 -81.4237 -19.6739 19.8901 -46.5747 -5.49712 -12.6438 -174.384 -58.8695 -155.642 174.875 13.3268 101.958 19.3103 10.4555 8.32427 -47.9065 -9.02662 -3.37174 -9.6121 -75.519 2.50404 -23.508 4.63459e-006 -5.90926e-006 1.63258 -15.3056 -23.3575 41.5421 -6.45422 -15.7293 -47.611 -3.63372 -2.18118 15.8444 -7.5176 -3.84441 -90 0 0 -145.062 -16.0449 -8.24029 -15.4239 -5.47923 0.557298 4.05782 -7.75215 15.2718 -90 0 0
-23.9953 90.2841 -89.9829 -79.4017 5.20668 -178.047 -32.1222 -26.525 0.564348 16.4118 -0.119221 -0.223933 2.7794 1.93418e-006 1.65929e-005 -2.69246 5.45189 74.705 -96.2085 -21.118 23.4008 -63.2987 1.88744 -17.4427 176.863 -62.8754 -162.378 176.026 11.6459 100.559 20.2259 9.67765 6.93231 -43.5141 -8.91744 -2.98535 -25.6451 -78.298 -13.7586 -23.508 4.63459e-006 -5.90926e-006 12.248 -0.739451 -10.6749 47.2261 9.38498 -12.9642 -45.8491 -3.69105 -2.02027 13.7259 4.58717 -10.1586 -90 0 0 -146.389 -11.4259 -9.74611 -20.3589 -5.34398 -0.177847 0.777387 -6.19728 10.2982 -90 0 0
-21.4065 88.2601 -95.8252 -80.3993 -14.146 -179.02 -30.5876 -20.9949 -1.09012 17.4507 -0.174857 -0.321432 2.7794 1.93418e-006 1.65929e-005 -2.79825 4.8518 76.0975 -90.491 -18.3959 24.5567 -78.2107 9.58369 -19.8379 170.664 -59.1188 -165.63 175.624 12.6145 100.452 11.1375 8.09142 8.25759 -32.4021 -8.51367 -2.05537 -50.2908 -82.4181 -38.0925 -23.508 4.63459e-006 -5.90926e-006 12.4851 10.6014 -3.08898 53.267 14.664 -12.1027 -58.4026 -2.42343 -3.04845 13.6512 2.14005 -12.9781 -90 0 0 -145.012 -16.246 -12.0399 -38.0493 -4.16096 -2.53538 9.38693 12.1095 15.6822 -90 0 0
-19.513 86.8272 -99.9188 -82.6132 -28.4801 -176.918 -30.0969 -13.1087 -5.55913 18.9417 -0.257815 -0.459552 2.7794 1.93418e-006 1.65929e-005 -3.00595 2.6988 78.9072 -77.7726 -14.2455 16.1899 -73.2274 6.94067 -19.2578 178.78 -55.6599 -159.468 176.407 11.8231 98.7685 2.1239 3.15678 12.204 -31.2935 -8.46373 -1.96733 -30.4991 -82.9687 -17.9899 -23.508 4.63459e-006 -5.90926e-006 11.9181 18.4812 3.78317 56.1284 9.70421 -14.9672 -73.6442 -0.811164 -3.85102 13.4543 -0.221686 -11.2703 -90 0 0 -143.993 -1.45513 -16.1598 -44.4224 -3.54713 -3.31065 12.1717 10.1692 15.671 -90 0 0
-18.7527 87.0509 -102.276 -85.6899 -37.3254 179.649 -26.5029 -9.25922 -1.83634 19.3666 -0.282107 -0.498531 2.7794 1.93418e-006 1.65929e-005 -3.27014 1.76735 75.8659 -65.4219 -5.24833 8.64866 -64.1169 2.28935 -17.624 -173.504 -55.4649 -153.246 177.362 8.293 101.274 -7.09925 -0.863632 15.191 -37.724 -8.72941 -2.49092 -58.8607 -86.4185 -46.1778 -23.508 4.63459e-006 -5.90926e-006 11.9605 20.4368 4.57578 51.3258 11.9743 -19.0964 -80.1747 0.0976225 -4.0237 12.6754 7.25113 -17.4447 -90 0 0 -144.245 6.57511 -22.3564 -46.9316 -3.26697 -3.59536 13.1349 8.75995 12.9653 -90 0 0
-18.6869 88.2375 -103.001 -91.0183 -44.4776 173.892 -24.0727 -6.52381 2.41314 19.7323 -0.303269 -0.531922 2.7794 1.93418e-006 1.65929e-005 -3.86916 -0.228585 72.5032 -48.462 2.5713 4.82906 -63.6775 2.07128 -17.5264 -178.308 -58.6899 -156.509 177.813 7.21318 101.453 -22.6608 -2.40448 19.242 -43.677 -8.92204 -2.99955 -17.9478 -88.3876 -4.2298 -23.508 4.63459e-006 -5.90926e-006 10.7773 14.2162 4.32831 40.2554 14.9183 -23.5969 -79.3699 -0.000189293 -3.98793 8.7398 11.3251 -19.0086 -90 0 0 -150.406 4.39332 -23.4266 -47.9924 -3.09737 -3.70783 13.3798 16.5207 5.96642 -90 0 0
